<?xml version="1.0" encoding="utf-8" standalone="no"?>
<!DOCTYPE svg PUBLIC "-//W3C//DTD SVG 1.1//EN"
  "http://www.w3.org/Graphics/SVG/1.1/DTD/svg11.dtd">
<!-- Created with matplotlib (https://matplotlib.org/) -->
<svg height="288pt" version="1.1" viewBox="0 0 576 288" width="576pt" xmlns="http://www.w3.org/2000/svg" xmlns:xlink="http://www.w3.org/1999/xlink">
 <metadata>
  <rdf:RDF xmlns:cc="http://creativecommons.org/ns#" xmlns:dc="http://purl.org/dc/elements/1.1/" xmlns:rdf="http://www.w3.org/1999/02/22-rdf-syntax-ns#">
   <cc:Work>
    <dc:type rdf:resource="http://purl.org/dc/dcmitype/StillImage"/>
    <dc:date>2021-06-24T13:48:55.304236</dc:date>
    <dc:format>image/svg+xml</dc:format>
    <dc:creator>
     <cc:Agent>
      <dc:title>Matplotlib v3.3.4, https://matplotlib.org/</dc:title>
     </cc:Agent>
    </dc:creator>
   </cc:Work>
  </rdf:RDF>
 </metadata>
 <defs>
  <style type="text/css">*{stroke-linecap:butt;stroke-linejoin:round;}</style>
 </defs>
 <g id="figure_1">
  <g id="patch_1">
   <path d="M 0 288 
L 576 288 
L 576 0 
L 0 0 
z
" style="fill:none;"/>
  </g>
  <g id="axes_1">
   <g id="patch_2">
    <path d="M 73.85 217.4 
L 554.4 217.4 
L 554.4 21.6 
L 73.85 21.6 
z
" style="fill:#ffffff;"/>
   </g>
   <g id="PathCollection_1">
    <path clip-path="url(#pc5065f3228)" d="M 482.270745 132.978843 
L 498.082133 132.978843 
L 498.082133 117.167455 
L 482.270745 117.167455 
z
" style="fill:#1f77b4;fill-opacity:0.5;"/>
   </g>
   <g id="PathCollection_2">
    <path clip-path="url(#pc5065f3228)" d="M 456.113684 143.042727 
L 471.925073 143.042727 
L 471.925073 127.231338 
L 456.113684 127.231338 
z
" style="fill:#1f77b4;fill-opacity:0.5;"/>
   </g>
   <g id="PathCollection_3">
    <path clip-path="url(#pc5065f3228)" d="M 532.556818 130.780041 
L 543.737158 119.599701 
L 532.556818 108.419361 
L 521.376478 119.599701 
z
" style="fill:#1f77b4;fill-opacity:0.5;"/>
   </g>
   <g id="PathCollection_4">
    <path clip-path="url(#pc5065f3228)" d="M 532.057364 134.541394 
L 543.237704 123.361054 
L 532.057364 112.180714 
L 520.877024 123.361054 
z
" style="fill:#1f77b4;fill-opacity:0.5;"/>
   </g>
   <g id="PathCollection_5">
    <path clip-path="url(#pc5065f3228)" d="M 493.02013 151.426611 
L 504.20047 140.246271 
L 493.02013 129.065931 
L 481.839791 140.246271 
z
" style="fill:#1f77b4;fill-opacity:0.5;"/>
   </g>
   <g id="PathCollection_6">
    <path clip-path="url(#pc5065f3228)" d="M 495.200027 142.209317 
C 497.296642 142.209317 499.307667 141.376323 500.790197 139.893792 
C 502.272728 138.411262 503.105721 136.400237 503.105721 134.303622 
C 503.105721 132.207008 502.272728 130.195983 500.790197 128.713452 
C 499.307667 127.230922 497.296642 126.397928 495.200027 126.397928 
C 493.103413 126.397928 491.092388 127.230922 489.609857 128.713452 
C 488.127327 130.195983 487.294333 132.207008 487.294333 134.303622 
C 487.294333 136.400237 488.127327 138.411262 489.609857 139.893792 
C 491.092388 141.376323 493.103413 142.209317 495.200027 142.209317 
z
" style="fill:#1f77b4;fill-opacity:0.5;"/>
   </g>
   <g id="PathCollection_7">
    <path clip-path="url(#pc5065f3228)" d="M 464.824317 142.110499 
C 466.920931 142.110499 468.931956 141.277505 470.414487 139.794975 
C 471.897017 138.312445 472.730011 136.30142 472.730011 134.204805 
C 472.730011 132.10819 471.897017 130.097166 470.414487 128.614635 
C 468.931956 127.132105 466.920931 126.299111 464.824317 126.299111 
C 462.727702 126.299111 460.716677 127.132105 459.234147 128.614635 
C 457.751616 130.097166 456.918623 132.10819 456.918623 134.204805 
C 456.918623 136.30142 457.751616 138.312445 459.234147 139.794975 
C 460.716677 141.277505 462.727702 142.110499 464.824317 142.110499 
z
" style="fill:#1f77b4;fill-opacity:0.5;"/>
   </g>
   <g id="PathCollection_8">
    <path clip-path="url(#pc5065f3228)" d="M 468.791287 147.202289 
C 470.887902 147.202289 472.898927 146.369295 474.381457 144.886765 
C 475.863987 143.404234 476.696981 141.393209 476.696981 139.296595 
C 476.696981 137.19998 475.863987 135.188955 474.381457 133.706425 
C 472.898927 132.223894 470.887902 131.390901 468.791287 131.390901 
C 466.694673 131.390901 464.683648 132.223894 463.201117 133.706425 
C 461.718587 135.188955 460.885593 137.19998 460.885593 139.296595 
C 460.885593 141.393209 461.718587 143.404234 463.201117 144.886765 
C 464.683648 146.369295 466.694673 147.202289 468.791287 147.202289 
z
" style="fill:#1f77b4;fill-opacity:0.5;"/>
   </g>
   <g id="PathCollection_9">
    <path clip-path="url(#pc5065f3228)" d="M 301.67491 174.92776 
L 312.85525 163.747421 
L 301.67491 152.567081 
L 290.49457 163.747421 
z
" style="fill:#2ca02c;fill-opacity:0.5;"/>
   </g>
   <g id="PathCollection_10">
    <path clip-path="url(#pc5065f3228)" d="M 286.448318 182.533814 
L 297.628658 171.353474 
L 286.448318 160.173134 
L 275.267978 171.353474 
z
" style="fill:#2ca02c;fill-opacity:0.5;"/>
   </g>
   <g id="PathCollection_11">
    <path clip-path="url(#pc5065f3228)" d="M 289.946491 178.721449 
L 301.126831 167.541109 
L 289.946491 156.360769 
L 278.766151 167.541109 
z
" style="fill:#2ca02c;fill-opacity:0.5;"/>
   </g>
   <g id="PathCollection_12">
    <path clip-path="url(#pc5065f3228)" d="M 267.251159 194.372277 
L 283.062547 194.372277 
L 283.062547 178.560888 
L 267.251159 178.560888 
z
" style="fill:#2ca02c;fill-opacity:0.5;"/>
   </g>
   <g id="PathCollection_13">
    <path clip-path="url(#pc5065f3228)" d="M 260.570827 190.523142 
L 276.382215 190.523142 
L 276.382215 174.711754 
L 260.570827 174.711754 
z
" style="fill:#2ca02c;fill-opacity:0.5;"/>
   </g>
   <g id="PathCollection_14">
    <path clip-path="url(#pc5065f3228)" d="M 268.019401 190.638512 
L 283.830789 190.638512 
L 283.830789 174.827124 
L 268.019401 174.827124 
z
" style="fill:#2ca02c;fill-opacity:0.5;"/>
   </g>
   <g id="PathCollection_15">
    <path clip-path="url(#pc5065f3228)" d="M 194.584054 213.290844 
L 205.764394 202.110504 
L 194.584054 190.930164 
L 183.403714 202.110504 
z
" style="fill:#ffd700;fill-opacity:0.5;"/>
   </g>
   <g id="PathCollection_16">
    <path clip-path="url(#pc5065f3228)" d="M 200.660553 207.960218 
L 211.840893 196.779878 
L 200.660553 185.599538 
L 189.480213 196.779878 
z
" style="fill:#ffd700;fill-opacity:0.5;"/>
   </g>
   <g id="PathCollection_17">
    <path clip-path="url(#pc5065f3228)" d="M 213.961045 201.431899 
L 225.141385 190.251559 
L 213.961045 179.07122 
L 202.780705 190.251559 
z
" style="fill:#ffd700;fill-opacity:0.5;"/>
   </g>
   <g id="PathCollection_18">
    <path clip-path="url(#pc5065f3228)" d="M 228.739496 210.940605 
L 244.550884 210.940605 
L 244.550884 195.129216 
L 228.739496 195.129216 
z
" style="fill:#ffd700;fill-opacity:0.5;"/>
   </g>
   <g id="PathCollection_19">
    <path clip-path="url(#pc5065f3228)" d="M 216.83122 216.405694 
L 232.642608 216.405694 
L 232.642608 200.594306 
L 216.83122 200.594306 
z
" style="fill:#ffd700;fill-opacity:0.5;"/>
   </g>
   <g id="PathCollection_20">
    <path clip-path="url(#pc5065f3228)" d="M 222.78379 208.026796 
L 238.595179 208.026796 
L 238.595179 192.215408 
L 222.78379 192.215408 
z
" style="fill:#ffd700;fill-opacity:0.5;"/>
   </g>
   <g id="PathCollection_21">
    <path clip-path="url(#pc5065f3228)" d="M 129.203984 166.77965 
C 131.300598 166.77965 133.311623 165.946656 134.794154 164.464126 
C 136.276684 162.981595 137.109678 160.97057 137.109678 158.873956 
C 137.109678 156.777341 136.276684 154.766316 134.794154 153.283786 
C 133.311623 151.801255 131.300598 150.968262 129.203984 150.968262 
C 127.107369 150.968262 125.096344 151.801255 123.613814 153.283786 
C 122.131283 154.766316 121.29829 156.777341 121.29829 158.873956 
C 121.29829 160.97057 122.131283 162.981595 123.613814 164.464126 
C 125.096344 165.946656 127.107369 166.77965 129.203984 166.77965 
z
" style="fill:#ffd700;fill-opacity:0.5;"/>
   </g>
   <g id="PathCollection_22">
    <path clip-path="url(#pc5065f3228)" d="M 134.790165 164.503732 
C 136.88678 164.503732 138.897805 163.670738 140.380335 162.188208 
C 141.862865 160.705678 142.695859 158.694653 142.695859 156.598038 
C 142.695859 154.501423 141.862865 152.490399 140.380335 151.007868 
C 138.897805 149.525338 136.88678 148.692344 134.790165 148.692344 
C 132.69355 148.692344 130.682525 149.525338 129.199995 151.007868 
C 127.717465 152.490399 126.884471 154.501423 126.884471 156.598038 
C 126.884471 158.694653 127.717465 160.705678 129.199995 162.188208 
C 130.682525 163.670738 132.69355 164.503732 134.790165 164.503732 
z
" style="fill:#ffd700;fill-opacity:0.5;"/>
   </g>
   <g id="PathCollection_23">
    <path clip-path="url(#pc5065f3228)" d="M 132.986155 169.466282 
C 135.08277 169.466282 137.093795 168.633288 138.576325 167.150757 
C 140.058855 165.668227 140.891849 163.657202 140.891849 161.560587 
C 140.891849 159.463973 140.058855 157.452948 138.576325 155.970417 
C 137.093795 154.487887 135.08277 153.654893 132.986155 153.654893 
C 130.889541 153.654893 128.878516 154.487887 127.395985 155.970417 
C 125.913455 157.452948 125.080461 159.463973 125.080461 161.560587 
C 125.080461 163.657202 125.913455 165.668227 127.395985 167.150757 
C 128.878516 168.633288 130.889541 169.466282 132.986155 169.466282 
z
" style="fill:#ffd700;fill-opacity:0.5;"/>
   </g>
   <g id="PathCollection_24">
    <path clip-path="url(#pc5065f3228)" d="M 304.275123 176.366729 
L 320.086511 176.366729 
L 320.086511 160.55534 
L 304.275123 160.55534 
z
" style="fill:#ff7f0e;fill-opacity:0.5;"/>
   </g>
   <g id="PathCollection_25">
    <path clip-path="url(#pc5065f3228)" d="M 300.87173 179.035852 
L 316.683118 179.035852 
L 316.683118 163.224464 
L 300.87173 163.224464 
z
" style="fill:#ff7f0e;fill-opacity:0.5;"/>
   </g>
   <g id="PathCollection_26">
    <path clip-path="url(#pc5065f3228)" d="M 303.185898 173.955073 
L 318.997287 173.955073 
L 318.997287 158.143684 
L 303.185898 158.143684 
z
" style="fill:#ff7f0e;fill-opacity:0.5;"/>
   </g>
   <g id="PathCollection_27">
    <path clip-path="url(#pc5065f3228)" d="M 241.616249 179.398478 
L 252.796589 168.218138 
L 241.616249 157.037798 
L 230.43591 168.218138 
z
" style="fill:#ff7f0e;fill-opacity:0.5;"/>
   </g>
   <g id="PathCollection_28">
    <path clip-path="url(#pc5065f3228)" d="M 245.173074 179.260759 
L 256.353414 168.080419 
L 245.173074 156.900079 
L 233.992734 168.080419 
z
" style="fill:#ff7f0e;fill-opacity:0.5;"/>
   </g>
   <g id="PathCollection_29">
    <path clip-path="url(#pc5065f3228)" d="M 247.449739 175.2688 
L 258.630078 164.08846 
L 247.449739 152.90812 
L 236.269399 164.08846 
z
" style="fill:#ff7f0e;fill-opacity:0.5;"/>
   </g>
   <g id="PathCollection_30">
    <path clip-path="url(#pc5065f3228)" d="M 130.90572 172.171531 
L 142.08606 160.991191 
L 130.90572 149.810851 
L 119.72538 160.991191 
z
" style="fill:#d62728;fill-opacity:0.5;"/>
   </g>
   <g id="PathCollection_31">
    <path clip-path="url(#pc5065f3228)" d="M 129.581524 171.838098 
L 140.761864 160.657758 
L 129.581524 149.477418 
L 118.401184 160.657758 
z
" style="fill:#d62728;fill-opacity:0.5;"/>
   </g>
   <g id="PathCollection_32">
    <path clip-path="url(#pc5065f3228)" d="M 114.714223 158.537045 
L 125.894563 147.356705 
L 114.714223 136.176365 
L 103.533884 147.356705 
z
" style="fill:#d62728;fill-opacity:0.5;"/>
   </g>
   <g id="PathCollection_33">
    <path clip-path="url(#pc5065f3228)" d="M 102.047526 45.016987 
C 104.144141 45.016987 106.155166 44.183993 107.637696 42.701462 
C 109.120226 41.218932 109.95322 39.207907 109.95322 37.111292 
C 109.95322 35.014678 109.120226 33.003653 107.637696 31.521122 
C 106.155166 30.038592 104.144141 29.205598 102.047526 29.205598 
C 99.950911 29.205598 97.939887 30.038592 96.457356 31.521122 
C 94.974826 33.003653 94.141832 35.014678 94.141832 37.111292 
C 94.141832 39.207907 94.974826 41.218932 96.457356 42.701462 
C 97.939887 44.183993 99.950911 45.016987 102.047526 45.016987 
z
" style="fill:#d62728;fill-opacity:0.5;"/>
   </g>
   <g id="PathCollection_34">
    <path clip-path="url(#pc5065f3228)" d="M 95.693182 38.405694 
C 97.789796 38.405694 99.800821 37.5727 101.283352 36.09017 
C 102.765882 34.60764 103.598876 32.596615 103.598876 30.5 
C 103.598876 28.403385 102.765882 26.39236 101.283352 24.90983 
C 99.800821 23.4273 97.789796 22.594306 95.693182 22.594306 
C 93.596567 22.594306 91.585542 23.4273 90.103012 24.90983 
C 88.620481 26.39236 87.787488 28.403385 87.787488 30.5 
C 87.787488 32.596615 88.620481 34.60764 90.103012 36.09017 
C 91.585542 37.5727 93.596567 38.405694 95.693182 38.405694 
z
" style="fill:#d62728;fill-opacity:0.5;"/>
   </g>
   <g id="PathCollection_35">
    <path clip-path="url(#pc5065f3228)" d="M 110.340165 63.558109 
C 112.43678 63.558109 114.447805 62.725115 115.930335 61.242584 
C 117.412865 59.760054 118.245859 57.749029 118.245859 55.652414 
C 118.245859 53.5558 117.412865 51.544775 115.930335 50.062244 
C 114.447805 48.579714 112.43678 47.74672 110.340165 47.74672 
C 108.24355 47.74672 106.232525 48.579714 104.749995 50.062244 
C 103.267465 51.544775 102.434471 53.5558 102.434471 55.652414 
C 102.434471 57.749029 103.267465 59.760054 104.749995 61.242584 
C 106.232525 62.725115 108.24355 63.558109 110.340165 63.558109 
z
" style="fill:#d62728;fill-opacity:0.5;"/>
   </g>
   <g id="matplotlib.axis_1">
    <g id="xtick_1">
     <g id="line2d_1">
      <path clip-path="url(#pc5065f3228)" d="M 164.969774 217.4 
L 164.969774 21.6 
" style="fill:none;stroke:#b0b0b0;stroke-dasharray:2.96,1.28;stroke-dashoffset:0;stroke-opacity:0.5;stroke-width:0.8;"/>
     </g>
     <g id="line2d_2">
      <defs>
       <path d="M 0 0 
L 0 3.5 
" id="meb63aa4804" style="stroke:#000000;stroke-width:0.8;"/>
      </defs>
      <g>
       <use style="stroke:#000000;stroke-width:0.8;" x="164.969774" xlink:href="#meb63aa4804" y="217.4"/>
      </g>
     </g>
     <g id="text_1">
      <!-- −20 -->
      <g transform="translate(148.010399 238.98125)scale(0.2 -0.2)">
       <defs>
        <path d="M 53.40625 26.703125 
L 53.40625 19.703125 
L 5 19.703125 
L 5 26.703125 
z
" id="FreeSans-8722"/>
        <path d="M 5 46.296875 
Q 5.703125 70.90625 28.40625 70.90625 
Q 38.5 70.90625 44.796875 65.09375 
Q 51.09375 59.296875 51.09375 50.09375 
Q 51.09375 36.90625 36.09375 28.703125 
L 26.09375 23.296875 
Q 19.59375 19.796875 16.796875 16.5 
Q 14 13.203125 13.296875 8.703125 
L 50.59375 8.703125 
L 50.59375 0 
L 3.40625 0 
Q 4 11.703125 8.09375 18.046875 
Q 12.203125 24.40625 23.296875 30.703125 
L 32.5 35.90625 
Q 42.09375 41.40625 42.09375 49.90625 
Q 42.09375 55.59375 38.09375 59.390625 
Q 34.09375 63.203125 28.09375 63.203125 
Q 14.796875 63.203125 13.796875 46.296875 
z
" id="FreeSans-50"/>
        <path d="M 4.296875 34.296875 
Q 4.296875 43.203125 5.796875 50 
Q 7.296875 56.796875 9.59375 60.640625 
Q 11.90625 64.5 15.09375 66.890625 
Q 18.296875 69.296875 21.25 70.09375 
Q 24.203125 70.90625 27.5 70.90625 
Q 50.703125 70.90625 50.703125 33.703125 
Q 50.703125 16.203125 44.75 6.953125 
Q 38.796875 -2.296875 27.5 -2.296875 
Q 16.09375 -2.296875 10.1875 7.046875 
Q 4.296875 16.40625 4.296875 34.296875 
z
M 41.703125 34.5 
Q 41.703125 63.09375 27.5 63.09375 
Q 13.296875 63.09375 13.296875 34.203125 
Q 13.296875 5 27.296875 5 
Q 34.703125 5 38.203125 12.203125 
Q 41.703125 19.40625 41.703125 34.5 
z
" id="FreeSans-48"/>
       </defs>
       <use xlink:href="#FreeSans-8722"/>
       <use x="58.399994" xlink:href="#FreeSans-50"/>
       <use x="113.999985" xlink:href="#FreeSans-48"/>
      </g>
     </g>
    </g>
    <g id="xtick_2">
     <g id="line2d_3">
      <path clip-path="url(#pc5065f3228)" d="M 276.745792 217.4 
L 276.745792 21.6 
" style="fill:none;stroke:#b0b0b0;stroke-dasharray:2.96,1.28;stroke-dashoffset:0;stroke-opacity:0.5;stroke-width:0.8;"/>
     </g>
     <g id="line2d_4">
      <g>
       <use style="stroke:#000000;stroke-width:0.8;" x="276.745792" xlink:href="#meb63aa4804" y="217.4"/>
      </g>
     </g>
     <g id="text_2">
      <!-- 0 -->
      <g transform="translate(271.186417 238.98125)scale(0.2 -0.2)">
       <use xlink:href="#FreeSans-48"/>
      </g>
     </g>
    </g>
    <g id="xtick_3">
     <g id="line2d_5">
      <path clip-path="url(#pc5065f3228)" d="M 388.521811 217.4 
L 388.521811 21.6 
" style="fill:none;stroke:#b0b0b0;stroke-dasharray:2.96,1.28;stroke-dashoffset:0;stroke-opacity:0.5;stroke-width:0.8;"/>
     </g>
     <g id="line2d_6">
      <g>
       <use style="stroke:#000000;stroke-width:0.8;" x="388.521811" xlink:href="#meb63aa4804" y="217.4"/>
      </g>
     </g>
     <g id="text_3">
      <!-- 20 -->
      <g transform="translate(377.403061 238.98125)scale(0.2 -0.2)">
       <use xlink:href="#FreeSans-50"/>
       <use x="55.599991" xlink:href="#FreeSans-48"/>
      </g>
     </g>
    </g>
    <g id="xtick_4">
     <g id="line2d_7">
      <path clip-path="url(#pc5065f3228)" d="M 500.29783 217.4 
L 500.29783 21.6 
" style="fill:none;stroke:#b0b0b0;stroke-dasharray:2.96,1.28;stroke-dashoffset:0;stroke-opacity:0.5;stroke-width:0.8;"/>
     </g>
     <g id="line2d_8">
      <g>
       <use style="stroke:#000000;stroke-width:0.8;" x="500.29783" xlink:href="#meb63aa4804" y="217.4"/>
      </g>
     </g>
     <g id="text_4">
      <!-- 40 -->
      <g transform="translate(489.17908 238.98125)scale(0.2 -0.2)">
       <defs>
        <path d="M 32.703125 17 
L 2.796875 17 
L 2.796875 26.296875 
L 35 70.90625 
L 41.5 70.90625 
L 41.5 24.90625 
L 52 24.90625 
L 52 17 
L 41.5 17 
L 41.5 0 
L 32.703125 0 
z
M 32.703125 24.90625 
L 32.703125 55.90625 
L 10.5 24.90625 
z
" id="FreeSans-52"/>
       </defs>
       <use xlink:href="#FreeSans-52"/>
       <use x="55.599991" xlink:href="#FreeSans-48"/>
      </g>
     </g>
    </g>
    <g id="text_5">
     <!-- PC1 -->
     <g transform="translate(294.915625 261.921875)scale(0.2 -0.2)">
      <defs>
       <path d="M 60.59375 51.5 
Q 60.59375 42.203125 54.9375 36.546875 
Q 49.296875 30.90625 40.203125 30.90625 
L 17.296875 30.90625 
L 17.296875 0 
L 8 0 
L 8 72.90625 
L 38.09375 72.90625 
Q 48.90625 72.90625 54.75 67.34375 
Q 60.59375 61.796875 60.59375 51.5 
z
M 17.296875 39.09375 
L 36.703125 39.09375 
Q 43.40625 39.09375 47.15625 42.5 
Q 50.90625 45.90625 50.90625 51.90625 
Q 50.90625 57.90625 47.15625 61.296875 
Q 43.40625 64.703125 36.703125 64.703125 
L 17.296875 64.703125 
z
" id="FreeSans-80"/>
       <path d="M 4 35.59375 
Q 4 40.59375 4.84375 45.5 
Q 5.703125 50.40625 8.09375 55.703125 
Q 10.5 61 14.046875 64.953125 
Q 17.59375 68.90625 23.640625 71.5 
Q 29.703125 74.09375 37.296875 74.09375 
Q 61.09375 74.09375 65.40625 50.296875 
L 55.90625 50.296875 
Q 54.296875 58.09375 49.59375 62 
Q 44.90625 65.90625 36.203125 65.90625 
Q 25.59375 65.90625 19.4375 57.796875 
Q 13.296875 49.703125 13.296875 35.703125 
Q 13.296875 22 19.6875 13.953125 
Q 26.09375 5.90625 37 5.90625 
Q 46 5.90625 50.796875 10.953125 
Q 55.59375 16 57.296875 26.59375 
L 66.90625 26.59375 
Q 63.59375 -2.296875 36.90625 -2.296875 
Q 29.40625 -2.296875 23.453125 0.25 
Q 17.5 2.796875 13.953125 6.6875 
Q 10.40625 10.59375 8.046875 15.84375 
Q 5.703125 21.09375 4.84375 25.890625 
Q 4 30.703125 4 35.59375 
z
" id="FreeSans-67"/>
       <path d="M 25.90625 50.5 
L 10.203125 50.5 
L 10.203125 56.796875 
Q 20.40625 58.09375 23.5 60.390625 
Q 26.59375 62.703125 28.90625 70.90625 
L 34.703125 70.90625 
L 34.703125 0 
L 25.90625 0 
z
" id="FreeSans-49"/>
      </defs>
      <use xlink:href="#FreeSans-80"/>
      <use x="65.599991" xlink:href="#FreeSans-67"/>
      <use x="136.499985" xlink:href="#FreeSans-49"/>
     </g>
    </g>
   </g>
   <g id="matplotlib.axis_2">
    <g id="ytick_1">
     <g id="line2d_9">
      <path clip-path="url(#pc5065f3228)" d="M 73.85 153.765959 
L 554.4 153.765959 
" style="fill:none;stroke:#b0b0b0;stroke-dasharray:2.96,1.28;stroke-dashoffset:0;stroke-opacity:0.5;stroke-width:0.8;"/>
     </g>
     <g id="line2d_10">
      <defs>
       <path d="M 0 0 
L -3.5 0 
" id="m1b48b86743" style="stroke:#000000;stroke-width:0.8;"/>
      </defs>
      <g>
       <use style="stroke:#000000;stroke-width:0.8;" x="73.85" xlink:href="#m1b48b86743" y="153.765959"/>
      </g>
     </g>
     <g id="text_6">
      <!-- 0 -->
      <g transform="translate(55.73125 161.056584)scale(0.2 -0.2)">
       <use xlink:href="#FreeSans-48"/>
      </g>
     </g>
    </g>
    <g id="ytick_2">
     <g id="line2d_11">
      <path clip-path="url(#pc5065f3228)" d="M 73.85 76.007873 
L 554.4 76.007873 
" style="fill:none;stroke:#b0b0b0;stroke-dasharray:2.96,1.28;stroke-dashoffset:0;stroke-opacity:0.5;stroke-width:0.8;"/>
     </g>
     <g id="line2d_12">
      <g>
       <use style="stroke:#000000;stroke-width:0.8;" x="73.85" xlink:href="#m1b48b86743" y="76.007873"/>
      </g>
     </g>
     <g id="text_7">
      <!-- 20 -->
      <g transform="translate(44.6125 83.298498)scale(0.2 -0.2)">
       <use xlink:href="#FreeSans-50"/>
       <use x="55.599991" xlink:href="#FreeSans-48"/>
      </g>
     </g>
    </g>
    <g id="text_8">
     <!-- PC2 -->
     <g transform="translate(36.253125 138.709375)rotate(-90)scale(0.2 -0.2)">
      <use xlink:href="#FreeSans-80"/>
      <use x="65.599991" xlink:href="#FreeSans-67"/>
      <use x="136.499985" xlink:href="#FreeSans-50"/>
     </g>
    </g>
   </g>
   <g id="patch_3">
    <path d="M 73.85 217.4 
L 73.85 21.6 
" style="fill:none;stroke:#000000;stroke-linecap:square;stroke-linejoin:miter;stroke-width:0.8;"/>
   </g>
   <g id="patch_4">
    <path d="M 554.4 217.4 
L 554.4 21.6 
" style="fill:none;stroke:#000000;stroke-linecap:square;stroke-linejoin:miter;stroke-width:0.8;"/>
   </g>
   <g id="patch_5">
    <path d="M 73.85 217.4 
L 554.4 217.4 
" style="fill:none;stroke:#000000;stroke-linecap:square;stroke-linejoin:miter;stroke-width:0.8;"/>
   </g>
   <g id="patch_6">
    <path d="M 73.85 21.6 
L 554.4 21.6 
" style="fill:none;stroke:#000000;stroke-linecap:square;stroke-linejoin:miter;stroke-width:0.8;"/>
   </g>
   <g id="legend_1">
    <g id="patch_7">
     <path d="M 261.43125 150.1625 
L 366.81875 150.1625 
Q 370.01875 150.1625 370.01875 146.9625 
L 370.01875 32.8 
Q 370.01875 29.6 366.81875 29.6 
L 261.43125 29.6 
Q 258.23125 29.6 258.23125 32.8 
L 258.23125 146.9625 
Q 258.23125 150.1625 261.43125 150.1625 
z
" style="fill:#ffffff;opacity:0.8;stroke:#cccccc;stroke-linejoin:miter;"/>
    </g>
    <g id="PathCollection_36">
     <path d="M 272.725556 51.370694 
L 288.536944 51.370694 
L 288.536944 35.559306 
L 272.725556 35.559306 
z
" style="fill:#1f77b4;fill-opacity:0.5;"/>
    </g>
    <g id="text_9">
     <!-- Day_3 -->
     <g transform="translate(309.43125 47.665)scale(0.16 -0.16)">
      <defs>
       <path d="M 8 0 
L 8 72.90625 
L 36.09375 72.90625 
Q 50 72.90625 57.890625 63.203125 
Q 65.796875 53.5 65.796875 36.5 
Q 65.796875 19.5 57.84375 9.75 
Q 49.90625 0 36.09375 0 
z
M 17.296875 8.203125 
L 34.5 8.203125 
Q 45.296875 8.203125 50.890625 15.390625 
Q 56.5 22.59375 56.5 36.40625 
Q 56.5 50.296875 50.890625 57.5 
Q 45.296875 64.703125 34.5 64.703125 
L 17.296875 64.703125 
z
" id="FreeSans-68"/>
       <path d="M 5.296875 36.90625 
Q 5.90625 53.90625 26.296875 53.90625 
Q 36 53.90625 41 50.25 
Q 46 46.59375 46 39.59375 
L 46 8.796875 
Q 46 4.703125 50.5 4.703125 
Q 51.40625 4.703125 52.296875 4.90625 
L 52.296875 -1.40625 
Q 48.796875 -2.296875 46.59375 -2.296875 
Q 42.59375 -2.296875 40.546875 -0.4375 
Q 38.5 1.40625 38 5.40625 
Q 29.59375 -2.296875 20.203125 -2.296875 
Q 12.296875 -2.296875 7.640625 1.890625 
Q 3 6.09375 3 13.203125 
Q 3 15.5 3.453125 17.390625 
Q 3.90625 19.296875 4.453125 20.75 
Q 5 22.203125 6.390625 23.453125 
Q 7.796875 24.703125 8.75 25.5 
Q 9.703125 26.296875 11.953125 27.046875 
Q 14.203125 27.796875 15.390625 28.140625 
Q 16.59375 28.5 19.59375 29 
Q 22.59375 29.5 24 29.703125 
Q 25.40625 29.90625 29 30.40625 
Q 33.90625 31 35.796875 32.296875 
Q 37.703125 33.59375 37.703125 36.203125 
L 37.703125 38.40625 
Q 37.703125 42.203125 34.640625 44.203125 
Q 31.59375 46.203125 26 46.203125 
Q 20.203125 46.203125 17.203125 43.953125 
Q 14.203125 41.703125 13.703125 36.90625 
z
M 22 5 
Q 28.90625 5 33.296875 8.640625 
Q 37.703125 12.296875 37.703125 16.5 
L 37.703125 25.90625 
Q 35.203125 24.703125 30.140625 23.890625 
Q 25.09375 23.09375 21.390625 22.5 
Q 17.703125 21.90625 14.703125 19.65625 
Q 11.703125 17.40625 11.703125 13.40625 
Q 11.703125 9.40625 14.390625 7.203125 
Q 17.09375 5 22 5 
z
" id="FreeSans-97"/>
       <path d="M 37.796875 52.40625 
L 46.796875 52.40625 
L 23.5 -11 
Q 19.40625 -21.796875 10 -21.796875 
Q 6.90625 -21.796875 4.40625 -20.5 
L 4.40625 -13 
Q 7.09375 -13.59375 8.796875 -13.59375 
Q 11.40625 -13.59375 12.90625 -12.4375 
Q 14.40625 -11.296875 15.5 -8.5 
L 18.703125 -0.203125 
L 1 52.40625 
L 9.90625 52.40625 
L 23.296875 11.59375 
z
" id="FreeSans-121"/>
       <path d="M 57.796875 -12.59375 
L 57.796875 -17.59375 
L -2.203125 -17.59375 
L -2.203125 -12.59375 
z
" id="FreeSans-95"/>
       <path d="M 27 63.203125 
Q 19.40625 63.203125 16.546875 59.046875 
Q 13.703125 54.90625 13.5 48 
L 4.703125 48 
Q 5.203125 70.90625 26.90625 70.90625 
Q 37 70.90625 42.75 65.703125 
Q 48.5 60.5 48.5 51.40625 
Q 48.5 40.59375 38.59375 36.703125 
Q 45 34.5 47.796875 30.546875 
Q 50.59375 26.59375 50.59375 19.796875 
Q 50.59375 9.703125 44.046875 3.703125 
Q 37.5 -2.296875 26.59375 -2.296875 
Q 4.796875 -2.296875 3.203125 20.59375 
L 12 20.59375 
Q 12.5 12.90625 16.09375 9.203125 
Q 19.703125 5.5 26.90625 5.5 
Q 33.796875 5.5 37.6875 9.25 
Q 41.59375 13 41.59375 19.703125 
Q 41.59375 32.59375 26.90625 32.59375 
L 23.203125 32.5 
L 22.09375 32.5 
L 22.09375 40 
Q 31.59375 40.203125 35.546875 42.390625 
Q 39.5 44.59375 39.5 51.09375 
Q 39.5 56.703125 36.140625 59.953125 
Q 32.796875 63.203125 27 63.203125 
z
" id="FreeSans-51"/>
      </defs>
      <use xlink:href="#FreeSans-68"/>
      <use x="69.799988" xlink:href="#FreeSans-97"/>
      <use x="124.099976" xlink:href="#FreeSans-121"/>
      <use x="171.899963" xlink:href="#FreeSans-95"/>
      <use x="227.499954" xlink:href="#FreeSans-51"/>
     </g>
    </g>
    <g id="PathCollection_37">
     <path d="M 280.63125 77.79784 
L 291.81159 66.6175 
L 280.63125 55.43716 
L 269.45091 66.6175 
z
" style="fill:#2ca02c;fill-opacity:0.5;"/>
    </g>
    <g id="text_10">
     <!-- Day_6 -->
     <g transform="translate(309.43125 70.8175)scale(0.16 -0.16)">
      <defs>
       <path d="M 4.296875 32.296875 
Q 4.296875 41.703125 6 48.84375 
Q 7.703125 56 10.25 60.09375 
Q 12.796875 64.203125 16.34375 66.75 
Q 19.90625 69.296875 23.046875 70.09375 
Q 26.203125 70.90625 29.703125 70.90625 
Q 37.796875 70.90625 43.140625 66 
Q 48.5 61.09375 49.796875 52.40625 
L 41 52.40625 
Q 39.90625 57.5 36.796875 60.296875 
Q 33.703125 63.09375 29.09375 63.09375 
Q 21.5 63.09375 17.453125 56.140625 
Q 13.40625 49.203125 13.296875 36.203125 
Q 19.09375 44.09375 29.59375 44.09375 
Q 39.09375 44.09375 45.1875 37.796875 
Q 51.296875 31.5 51.296875 21.59375 
Q 51.296875 11.203125 44.75 4.453125 
Q 38.203125 -2.296875 28.09375 -2.296875 
Q 4.296875 -2.296875 4.296875 32.296875 
z
M 28.5 36.296875 
Q 22 36.296875 17.890625 32.140625 
Q 13.796875 28 13.796875 21.40625 
Q 13.796875 14.59375 17.890625 10.046875 
Q 22 5.5 28.203125 5.5 
Q 34.296875 5.5 38.296875 9.84375 
Q 42.296875 14.203125 42.296875 20.90625 
Q 42.296875 28 38.59375 32.140625 
Q 34.90625 36.296875 28.5 36.296875 
z
" id="FreeSans-54"/>
      </defs>
      <use xlink:href="#FreeSans-68"/>
      <use x="69.799988" xlink:href="#FreeSans-97"/>
      <use x="124.099976" xlink:href="#FreeSans-121"/>
      <use x="171.899963" xlink:href="#FreeSans-95"/>
      <use x="227.499954" xlink:href="#FreeSans-54"/>
     </g>
    </g>
    <g id="PathCollection_38">
     <path d="M 280.63125 100.95034 
L 291.81159 89.77 
L 280.63125 78.58966 
L 269.45091 89.77 
z
" style="fill:#ffd700;fill-opacity:0.5;"/>
    </g>
    <g id="text_11">
     <!-- Day_9 -->
     <g transform="translate(309.43125 93.97)scale(0.16 -0.16)">
      <defs>
       <path d="M 50.90625 36.296875 
Q 50.90625 26.90625 49.203125 19.75 
Q 47.5 12.59375 44.953125 8.5 
Q 42.40625 4.40625 38.84375 1.84375 
Q 35.296875 -0.703125 32.09375 -1.5 
Q 28.90625 -2.296875 25.40625 -2.296875 
Q 17.296875 -2.296875 11.9375 2.59375 
Q 6.59375 7.5 5.296875 16.203125 
L 14.09375 16.203125 
Q 15.203125 11.09375 18.296875 8.296875 
Q 21.40625 5.5 26 5.5 
Q 33.59375 5.5 37.640625 12.453125 
Q 41.703125 19.40625 41.796875 32.40625 
Q 35.203125 24.5 25.59375 24.5 
Q 16 24.5 9.890625 30.796875 
Q 3.796875 37.09375 3.796875 47 
Q 3.796875 57.40625 10.34375 64.15625 
Q 16.90625 70.90625 27 70.90625 
Q 50.90625 70.90625 50.90625 36.296875 
z
M 26.90625 63.203125 
Q 20.796875 63.203125 16.796875 58.796875 
Q 12.796875 54.40625 12.796875 47.703125 
Q 12.796875 40.59375 16.5 36.4375 
Q 20.203125 32.296875 26.59375 32.296875 
Q 33 32.296875 37.140625 36.5 
Q 41.296875 40.703125 41.296875 47.203125 
Q 41.296875 54.09375 37.1875 58.640625 
Q 33.09375 63.203125 26.90625 63.203125 
z
" id="FreeSans-57"/>
      </defs>
      <use xlink:href="#FreeSans-68"/>
      <use x="69.799988" xlink:href="#FreeSans-97"/>
      <use x="124.099976" xlink:href="#FreeSans-121"/>
      <use x="171.899963" xlink:href="#FreeSans-95"/>
      <use x="227.499954" xlink:href="#FreeSans-57"/>
     </g>
    </g>
    <g id="PathCollection_39">
     <path d="M 272.725556 120.828194 
L 288.536944 120.828194 
L 288.536944 105.016806 
L 272.725556 105.016806 
z
" style="fill:#ff7f0e;fill-opacity:0.5;"/>
    </g>
    <g id="text_12">
     <!-- Day_16 -->
     <g transform="translate(309.43125 117.1225)scale(0.16 -0.16)">
      <use xlink:href="#FreeSans-68"/>
      <use x="69.799988" xlink:href="#FreeSans-97"/>
      <use x="124.099976" xlink:href="#FreeSans-121"/>
      <use x="171.899963" xlink:href="#FreeSans-95"/>
      <use x="227.499954" xlink:href="#FreeSans-49"/>
      <use x="283.099945" xlink:href="#FreeSans-54"/>
     </g>
    </g>
    <g id="PathCollection_40">
     <path d="M 280.63125 147.25534 
L 291.81159 136.075 
L 280.63125 124.89466 
L 269.45091 136.075 
z
" style="fill:#d62728;fill-opacity:0.5;"/>
    </g>
    <g id="text_13">
     <!-- Day_28 -->
     <g transform="translate(309.43125 140.275)scale(0.16 -0.16)">
      <defs>
       <path d="M 39.09375 37.296875 
Q 51.296875 31.5 51.296875 19.59375 
Q 51.296875 9.90625 44.640625 3.796875 
Q 38 -2.296875 27.5 -2.296875 
Q 17 -2.296875 10.34375 3.84375 
Q 3.703125 10 3.703125 19.703125 
Q 3.703125 31.5 15.796875 37.296875 
Q 10.40625 40.703125 8.296875 43.890625 
Q 6.203125 47.09375 6.203125 52 
Q 6.203125 60.296875 12.140625 65.59375 
Q 18.09375 70.90625 27.5 70.90625 
Q 36.90625 70.90625 42.84375 65.59375 
Q 48.796875 60.296875 48.796875 52 
Q 48.796875 47 46.6875 43.796875 
Q 44.59375 40.59375 39.09375 37.296875 
z
M 39.796875 57 
Q 33.09375 63.09375 27.5 63.09375 
Q 21.90625 63.09375 18.546875 60.046875 
Q 15.203125 57 15.203125 51.90625 
Q 15.203125 46.90625 18.546875 43.84375 
Q 21.90625 40.796875 27.5 40.796875 
Q 33 40.796875 36.390625 43.796875 
Q 39.796875 46.796875 39.796875 51.796875 
Q 39.796875 57 33.09375 63.09375 
z
M 42.296875 25.703125 
Q 34.09375 33.40625 27.5 33.40625 
Q 20.90625 33.40625 16.796875 29.546875 
Q 12.703125 25.703125 12.703125 19.5 
Q 12.703125 13.296875 16.75 9.390625 
Q 20.796875 5.5 27.296875 5.5 
Q 34 5.5 38.140625 9.34375 
Q 42.296875 13.203125 42.296875 19.5 
Q 42.296875 25.703125 34.09375 33.40625 
z
" id="FreeSans-56"/>
      </defs>
      <use xlink:href="#FreeSans-68"/>
      <use x="69.799988" xlink:href="#FreeSans-97"/>
      <use x="124.099976" xlink:href="#FreeSans-121"/>
      <use x="171.899963" xlink:href="#FreeSans-95"/>
      <use x="227.499954" xlink:href="#FreeSans-50"/>
      <use x="283.099945" xlink:href="#FreeSans-56"/>
     </g>
    </g>
   </g>
  </g>
 </g>
 <defs>
  <clipPath id="pc5065f3228">
   <rect height="195.8" width="480.55" x="73.85" y="21.6"/>
  </clipPath>
 </defs>
</svg>
