<?xml version="1.0" encoding="utf-8" standalone="no"?>
<!DOCTYPE svg PUBLIC "-//W3C//DTD SVG 1.1//EN"
  "http://www.w3.org/Graphics/SVG/1.1/DTD/svg11.dtd">
<!-- Created with matplotlib (https://matplotlib.org/) -->
<svg height="288pt" version="1.1" viewBox="0 0 576 288" width="576pt" xmlns="http://www.w3.org/2000/svg" xmlns:xlink="http://www.w3.org/1999/xlink">
 <metadata>
  <rdf:RDF xmlns:cc="http://creativecommons.org/ns#" xmlns:dc="http://purl.org/dc/elements/1.1/" xmlns:rdf="http://www.w3.org/1999/02/22-rdf-syntax-ns#">
   <cc:Work>
    <dc:type rdf:resource="http://purl.org/dc/dcmitype/StillImage"/>
    <dc:date>2021-06-24T13:48:55.530662</dc:date>
    <dc:format>image/svg+xml</dc:format>
    <dc:creator>
     <cc:Agent>
      <dc:title>Matplotlib v3.3.4, https://matplotlib.org/</dc:title>
     </cc:Agent>
    </dc:creator>
   </cc:Work>
  </rdf:RDF>
 </metadata>
 <defs>
  <style type="text/css">*{stroke-linecap:butt;stroke-linejoin:round;}</style>
 </defs>
 <g id="figure_1">
  <g id="patch_1">
   <path d="M 0 288 
L 576 288 
L 576 0 
L 0 0 
z
" style="fill:none;"/>
  </g>
  <g id="axes_1">
   <g id="patch_2">
    <path d="M 62.725 217.4 
L 543.275 217.4 
L 543.275 28.80544 
L 62.725 28.80544 
z
" style="fill:#ffffff;"/>
   </g>
   <g id="matplotlib.axis_1">
    <g id="xtick_1">
     <g id="line2d_1">
      <path clip-path="url(#p4fc1787e7d)" d="M 62.725 217.4 
L 62.725 28.80544 
" style="fill:none;stroke:#b0b0b0;stroke-dasharray:0.8,1.32;stroke-dashoffset:0;stroke-opacity:0.5;stroke-width:0.8;"/>
     </g>
     <g id="line2d_2">
      <defs>
       <path d="M 0 0 
L 0 3.5 
" id="m7a28d7230f" style="stroke:#000000;stroke-width:0.8;"/>
      </defs>
      <g>
       <use style="stroke:#000000;stroke-width:0.8;" x="62.725" xlink:href="#m7a28d7230f" y="217.4"/>
      </g>
     </g>
     <g id="text_1">
      <!-- 0 -->
      <g transform="translate(57.165625 238.98125)scale(0.2 -0.2)">
       <defs>
        <path d="M 4.296875 34.296875 
Q 4.296875 43.203125 5.796875 50 
Q 7.296875 56.796875 9.59375 60.640625 
Q 11.90625 64.5 15.09375 66.890625 
Q 18.296875 69.296875 21.25 70.09375 
Q 24.203125 70.90625 27.5 70.90625 
Q 50.703125 70.90625 50.703125 33.703125 
Q 50.703125 16.203125 44.75 6.953125 
Q 38.796875 -2.296875 27.5 -2.296875 
Q 16.09375 -2.296875 10.1875 7.046875 
Q 4.296875 16.40625 4.296875 34.296875 
z
M 41.703125 34.5 
Q 41.703125 63.09375 27.5 63.09375 
Q 13.296875 63.09375 13.296875 34.203125 
Q 13.296875 5 27.296875 5 
Q 34.703125 5 38.203125 12.203125 
Q 41.703125 19.40625 41.703125 34.5 
z
" id="FreeSans-48"/>
       </defs>
       <use xlink:href="#FreeSans-48"/>
      </g>
     </g>
    </g>
    <g id="xtick_2">
     <g id="line2d_3">
      <path clip-path="url(#p4fc1787e7d)" d="M 142.816667 217.4 
L 142.816667 28.80544 
" style="fill:none;stroke:#b0b0b0;stroke-dasharray:0.8,1.32;stroke-dashoffset:0;stroke-opacity:0.5;stroke-width:0.8;"/>
     </g>
     <g id="line2d_4">
      <g>
       <use style="stroke:#000000;stroke-width:0.8;" x="142.816667" xlink:href="#m7a28d7230f" y="217.4"/>
      </g>
     </g>
     <g id="text_2">
      <!-- 5 -->
      <g transform="translate(137.257292 238.98125)scale(0.2 -0.2)">
       <defs>
        <path d="M 47.59375 70.90625 
L 47.59375 62.203125 
L 18.09375 62.203125 
L 15.296875 42.40625 
Q 21.203125 46.703125 28.40625 46.703125 
Q 38.59375 46.703125 44.9375 40.140625 
Q 51.296875 33.59375 51.296875 23.09375 
Q 51.296875 11.90625 44.5 4.796875 
Q 37.703125 -2.296875 27 -2.296875 
Q 22.90625 -2.296875 19.453125 -1.390625 
Q 16 -0.5 13.75 0.75 
Q 11.5 2 9.640625 4.046875 
Q 7.796875 6.09375 6.84375 7.640625 
Q 5.90625 9.203125 5.046875 11.546875 
Q 4.203125 13.90625 4 14.796875 
Q 3.796875 15.703125 3.5 17.40625 
L 12.296875 17.40625 
Q 15.40625 5.5 26.796875 5.5 
Q 34 5.5 38.140625 9.890625 
Q 42.296875 14.296875 42.296875 21.90625 
Q 42.296875 29.796875 38.09375 34.34375 
Q 33.90625 38.90625 26.796875 38.90625 
Q 22.703125 38.90625 19.796875 37.453125 
Q 16.90625 36 13.796875 32.296875 
L 5.703125 32.296875 
L 11 70.90625 
z
" id="FreeSans-53"/>
       </defs>
       <use xlink:href="#FreeSans-53"/>
      </g>
     </g>
    </g>
    <g id="xtick_3">
     <g id="line2d_5">
      <path clip-path="url(#p4fc1787e7d)" d="M 222.908333 217.4 
L 222.908333 28.80544 
" style="fill:none;stroke:#b0b0b0;stroke-dasharray:0.8,1.32;stroke-dashoffset:0;stroke-opacity:0.5;stroke-width:0.8;"/>
     </g>
     <g id="line2d_6">
      <g>
       <use style="stroke:#000000;stroke-width:0.8;" x="222.908333" xlink:href="#m7a28d7230f" y="217.4"/>
      </g>
     </g>
     <g id="text_3">
      <!-- 10 -->
      <g transform="translate(211.789583 238.98125)scale(0.2 -0.2)">
       <defs>
        <path d="M 25.90625 50.5 
L 10.203125 50.5 
L 10.203125 56.796875 
Q 20.40625 58.09375 23.5 60.390625 
Q 26.59375 62.703125 28.90625 70.90625 
L 34.703125 70.90625 
L 34.703125 0 
L 25.90625 0 
z
" id="FreeSans-49"/>
       </defs>
       <use xlink:href="#FreeSans-49"/>
       <use x="55.599991" xlink:href="#FreeSans-48"/>
      </g>
     </g>
    </g>
    <g id="xtick_4">
     <g id="line2d_7">
      <path clip-path="url(#p4fc1787e7d)" d="M 303 217.4 
L 303 28.80544 
" style="fill:none;stroke:#b0b0b0;stroke-dasharray:0.8,1.32;stroke-dashoffset:0;stroke-opacity:0.5;stroke-width:0.8;"/>
     </g>
     <g id="line2d_8">
      <g>
       <use style="stroke:#000000;stroke-width:0.8;" x="303" xlink:href="#m7a28d7230f" y="217.4"/>
      </g>
     </g>
     <g id="text_4">
      <!-- 15 -->
      <g transform="translate(291.88125 238.98125)scale(0.2 -0.2)">
       <use xlink:href="#FreeSans-49"/>
       <use x="55.599991" xlink:href="#FreeSans-53"/>
      </g>
     </g>
    </g>
    <g id="xtick_5">
     <g id="line2d_9">
      <path clip-path="url(#p4fc1787e7d)" d="M 383.091667 217.4 
L 383.091667 28.80544 
" style="fill:none;stroke:#b0b0b0;stroke-dasharray:0.8,1.32;stroke-dashoffset:0;stroke-opacity:0.5;stroke-width:0.8;"/>
     </g>
     <g id="line2d_10">
      <g>
       <use style="stroke:#000000;stroke-width:0.8;" x="383.091667" xlink:href="#m7a28d7230f" y="217.4"/>
      </g>
     </g>
     <g id="text_5">
      <!-- 20 -->
      <g transform="translate(371.972917 238.98125)scale(0.2 -0.2)">
       <defs>
        <path d="M 5 46.296875 
Q 5.703125 70.90625 28.40625 70.90625 
Q 38.5 70.90625 44.796875 65.09375 
Q 51.09375 59.296875 51.09375 50.09375 
Q 51.09375 36.90625 36.09375 28.703125 
L 26.09375 23.296875 
Q 19.59375 19.796875 16.796875 16.5 
Q 14 13.203125 13.296875 8.703125 
L 50.59375 8.703125 
L 50.59375 0 
L 3.40625 0 
Q 4 11.703125 8.09375 18.046875 
Q 12.203125 24.40625 23.296875 30.703125 
L 32.5 35.90625 
Q 42.09375 41.40625 42.09375 49.90625 
Q 42.09375 55.59375 38.09375 59.390625 
Q 34.09375 63.203125 28.09375 63.203125 
Q 14.796875 63.203125 13.796875 46.296875 
z
" id="FreeSans-50"/>
       </defs>
       <use xlink:href="#FreeSans-50"/>
       <use x="55.599991" xlink:href="#FreeSans-48"/>
      </g>
     </g>
    </g>
    <g id="xtick_6">
     <g id="line2d_11">
      <path clip-path="url(#p4fc1787e7d)" d="M 463.183333 217.4 
L 463.183333 28.80544 
" style="fill:none;stroke:#b0b0b0;stroke-dasharray:0.8,1.32;stroke-dashoffset:0;stroke-opacity:0.5;stroke-width:0.8;"/>
     </g>
     <g id="line2d_12">
      <g>
       <use style="stroke:#000000;stroke-width:0.8;" x="463.183333" xlink:href="#m7a28d7230f" y="217.4"/>
      </g>
     </g>
     <g id="text_6">
      <!-- 25 -->
      <g transform="translate(452.064583 238.98125)scale(0.2 -0.2)">
       <use xlink:href="#FreeSans-50"/>
       <use x="55.599991" xlink:href="#FreeSans-53"/>
      </g>
     </g>
    </g>
    <g id="xtick_7">
     <g id="line2d_13">
      <path clip-path="url(#p4fc1787e7d)" d="M 543.275 217.4 
L 543.275 28.80544 
" style="fill:none;stroke:#b0b0b0;stroke-dasharray:0.8,1.32;stroke-dashoffset:0;stroke-opacity:0.5;stroke-width:0.8;"/>
     </g>
     <g id="line2d_14">
      <g>
       <use style="stroke:#000000;stroke-width:0.8;" x="543.275" xlink:href="#m7a28d7230f" y="217.4"/>
      </g>
     </g>
     <g id="text_7">
      <!-- 30 -->
      <g transform="translate(532.15625 238.98125)scale(0.2 -0.2)">
       <defs>
        <path d="M 27 63.203125 
Q 19.40625 63.203125 16.546875 59.046875 
Q 13.703125 54.90625 13.5 48 
L 4.703125 48 
Q 5.203125 70.90625 26.90625 70.90625 
Q 37 70.90625 42.75 65.703125 
Q 48.5 60.5 48.5 51.40625 
Q 48.5 40.59375 38.59375 36.703125 
Q 45 34.5 47.796875 30.546875 
Q 50.59375 26.59375 50.59375 19.796875 
Q 50.59375 9.703125 44.046875 3.703125 
Q 37.5 -2.296875 26.59375 -2.296875 
Q 4.796875 -2.296875 3.203125 20.59375 
L 12 20.59375 
Q 12.5 12.90625 16.09375 9.203125 
Q 19.703125 5.5 26.90625 5.5 
Q 33.796875 5.5 37.6875 9.25 
Q 41.59375 13 41.59375 19.703125 
Q 41.59375 32.59375 26.90625 32.59375 
L 23.203125 32.5 
L 22.09375 32.5 
L 22.09375 40 
Q 31.59375 40.203125 35.546875 42.390625 
Q 39.5 44.59375 39.5 51.09375 
Q 39.5 56.703125 36.140625 59.953125 
Q 32.796875 63.203125 27 63.203125 
z
" id="FreeSans-51"/>
       </defs>
       <use xlink:href="#FreeSans-51"/>
       <use x="55.599991" xlink:href="#FreeSans-48"/>
      </g>
     </g>
    </g>
    <g id="text_8">
     <!-- days -->
     <g transform="translate(282.270313 261.921875)scale(0.2 -0.2)">
      <defs>
       <path d="M 49.90625 72.90625 
L 49.90625 0 
L 42.5 0 
L 42.5 6.90625 
Q 39.09375 2 35.140625 -0.140625 
Q 31.203125 -2.296875 25.796875 -2.296875 
Q 15.203125 -2.296875 9.09375 5.34375 
Q 3 13 3 26.296875 
Q 3 38.796875 9.140625 46.34375 
Q 15.296875 53.90625 25.5 53.90625 
Q 36.296875 53.90625 41.59375 45.796875 
L 41.59375 72.90625 
z
M 26.90625 46.09375 
Q 20.09375 46.09375 15.890625 40.5 
Q 11.703125 34.90625 11.703125 25.796875 
Q 11.703125 16.59375 15.890625 11.046875 
Q 20.09375 5.5 27 5.5 
Q 33.59375 5.5 37.59375 11 
Q 41.59375 16.5 41.59375 25.59375 
Q 41.59375 35 37.59375 40.546875 
Q 33.59375 46.09375 26.90625 46.09375 
z
" id="FreeSans-100"/>
       <path d="M 5.296875 36.90625 
Q 5.90625 53.90625 26.296875 53.90625 
Q 36 53.90625 41 50.25 
Q 46 46.59375 46 39.59375 
L 46 8.796875 
Q 46 4.703125 50.5 4.703125 
Q 51.40625 4.703125 52.296875 4.90625 
L 52.296875 -1.40625 
Q 48.796875 -2.296875 46.59375 -2.296875 
Q 42.59375 -2.296875 40.546875 -0.4375 
Q 38.5 1.40625 38 5.40625 
Q 29.59375 -2.296875 20.203125 -2.296875 
Q 12.296875 -2.296875 7.640625 1.890625 
Q 3 6.09375 3 13.203125 
Q 3 15.5 3.453125 17.390625 
Q 3.90625 19.296875 4.453125 20.75 
Q 5 22.203125 6.390625 23.453125 
Q 7.796875 24.703125 8.75 25.5 
Q 9.703125 26.296875 11.953125 27.046875 
Q 14.203125 27.796875 15.390625 28.140625 
Q 16.59375 28.5 19.59375 29 
Q 22.59375 29.5 24 29.703125 
Q 25.40625 29.90625 29 30.40625 
Q 33.90625 31 35.796875 32.296875 
Q 37.703125 33.59375 37.703125 36.203125 
L 37.703125 38.40625 
Q 37.703125 42.203125 34.640625 44.203125 
Q 31.59375 46.203125 26 46.203125 
Q 20.203125 46.203125 17.203125 43.953125 
Q 14.203125 41.703125 13.703125 36.90625 
z
M 22 5 
Q 28.90625 5 33.296875 8.640625 
Q 37.703125 12.296875 37.703125 16.5 
L 37.703125 25.90625 
Q 35.203125 24.703125 30.140625 23.890625 
Q 25.09375 23.09375 21.390625 22.5 
Q 17.703125 21.90625 14.703125 19.65625 
Q 11.703125 17.40625 11.703125 13.40625 
Q 11.703125 9.40625 14.390625 7.203125 
Q 17.09375 5 22 5 
z
" id="FreeSans-97"/>
       <path d="M 37.796875 52.40625 
L 46.796875 52.40625 
L 23.5 -11 
Q 19.40625 -21.796875 10 -21.796875 
Q 6.90625 -21.796875 4.40625 -20.5 
L 4.40625 -13 
Q 7.09375 -13.59375 8.796875 -13.59375 
Q 11.40625 -13.59375 12.90625 -12.4375 
Q 14.40625 -11.296875 15.5 -8.5 
L 18.703125 -0.203125 
L 1 52.40625 
L 9.90625 52.40625 
L 23.296875 11.59375 
z
" id="FreeSans-121"/>
       <path d="M 12.203125 15.59375 
Q 12.796875 10.90625 15.4375 8.15625 
Q 18.09375 5.40625 25 5.40625 
Q 30.5 5.40625 33.84375 7.65625 
Q 37.203125 9.90625 37.203125 13.59375 
Q 37.203125 16.5 35.296875 18.203125 
Q 33.40625 19.90625 29.09375 20.90625 
L 21.296875 22.796875 
Q 12 25 8.34375 28.34375 
Q 4.703125 31.703125 4.703125 37.90625 
Q 4.703125 45.203125 10.203125 49.546875 
Q 15.703125 53.90625 24.796875 53.90625 
Q 33.90625 53.90625 38.796875 49.703125 
Q 43.703125 45.5 43.796875 37.796875 
L 35 37.796875 
Q 34.703125 46.203125 24.5 46.203125 
Q 19.40625 46.203125 16.40625 44.046875 
Q 13.40625 41.90625 13.40625 38.296875 
Q 13.40625 35.5 15.703125 33.75 
Q 18 32 23.09375 30.796875 
L 31.09375 28.90625 
Q 38.90625 27 42.40625 23.546875 
Q 45.90625 20.09375 45.90625 14.296875 
Q 45.90625 6.703125 40.046875 2.203125 
Q 34.203125 -2.296875 24.296875 -2.296875 
Q 4 -2.296875 3.40625 15.59375 
z
" id="FreeSans-115"/>
      </defs>
      <use xlink:href="#FreeSans-100"/>
      <use x="55.899994" xlink:href="#FreeSans-97"/>
      <use x="110.199982" xlink:href="#FreeSans-121"/>
      <use x="157.999969" xlink:href="#FreeSans-115"/>
     </g>
    </g>
   </g>
   <g id="matplotlib.axis_2">
    <g id="ytick_1">
     <g id="line2d_15">
      <path clip-path="url(#p4fc1787e7d)" d="M 62.725 215.019616 
L 543.275 215.019616 
" style="fill:none;stroke:#b0b0b0;stroke-dasharray:0.8,1.32;stroke-dashoffset:0;stroke-opacity:0.5;stroke-width:0.8;"/>
     </g>
     <g id="line2d_16">
      <defs>
       <path d="M 0 0 
L -3.5 0 
" id="m72578f33db" style="stroke:#000000;stroke-width:0.8;"/>
      </defs>
      <g>
       <use style="stroke:#000000;stroke-width:0.8;" x="62.725" xlink:href="#m72578f33db" y="215.019616"/>
      </g>
     </g>
     <g id="text_9">
      <!-- 0 -->
      <g transform="translate(44.60625 222.310241)scale(0.2 -0.2)">
       <use xlink:href="#FreeSans-48"/>
      </g>
     </g>
    </g>
    <g id="ytick_2">
     <g id="line2d_17">
      <path clip-path="url(#p4fc1787e7d)" d="M 62.725 153.033385 
L 543.275 153.033385 
" style="fill:none;stroke:#b0b0b0;stroke-dasharray:0.8,1.32;stroke-dashoffset:0;stroke-opacity:0.5;stroke-width:0.8;"/>
     </g>
     <g id="line2d_18">
      <g>
       <use style="stroke:#000000;stroke-width:0.8;" x="62.725" xlink:href="#m72578f33db" y="153.033385"/>
      </g>
     </g>
     <g id="text_10">
      <!-- 2 -->
      <g transform="translate(44.60625 160.32401)scale(0.2 -0.2)">
       <use xlink:href="#FreeSans-50"/>
      </g>
     </g>
    </g>
    <g id="ytick_3">
     <g id="line2d_19">
      <path clip-path="url(#p4fc1787e7d)" d="M 62.725 91.047154 
L 543.275 91.047154 
" style="fill:none;stroke:#b0b0b0;stroke-dasharray:0.8,1.32;stroke-dashoffset:0;stroke-opacity:0.5;stroke-width:0.8;"/>
     </g>
     <g id="line2d_20">
      <g>
       <use style="stroke:#000000;stroke-width:0.8;" x="62.725" xlink:href="#m72578f33db" y="91.047154"/>
      </g>
     </g>
     <g id="text_11">
      <!-- 4 -->
      <g transform="translate(44.60625 98.337779)scale(0.2 -0.2)">
       <defs>
        <path d="M 32.703125 17 
L 2.796875 17 
L 2.796875 26.296875 
L 35 70.90625 
L 41.5 70.90625 
L 41.5 24.90625 
L 52 24.90625 
L 52 17 
L 41.5 17 
L 41.5 0 
L 32.703125 0 
z
M 32.703125 24.90625 
L 32.703125 55.90625 
L 10.5 24.90625 
z
" id="FreeSans-52"/>
       </defs>
       <use xlink:href="#FreeSans-52"/>
      </g>
     </g>
    </g>
    <g id="ytick_4">
     <g id="line2d_21">
      <path clip-path="url(#p4fc1787e7d)" d="M 62.725 29.060924 
L 543.275 29.060924 
" style="fill:none;stroke:#b0b0b0;stroke-dasharray:0.8,1.32;stroke-dashoffset:0;stroke-opacity:0.5;stroke-width:0.8;"/>
     </g>
     <g id="line2d_22">
      <g>
       <use style="stroke:#000000;stroke-width:0.8;" x="62.725" xlink:href="#m72578f33db" y="29.060924"/>
      </g>
     </g>
     <g id="text_12">
      <!-- 6 -->
      <g transform="translate(44.60625 36.351549)scale(0.2 -0.2)">
       <defs>
        <path d="M 4.296875 32.296875 
Q 4.296875 41.703125 6 48.84375 
Q 7.703125 56 10.25 60.09375 
Q 12.796875 64.203125 16.34375 66.75 
Q 19.90625 69.296875 23.046875 70.09375 
Q 26.203125 70.90625 29.703125 70.90625 
Q 37.796875 70.90625 43.140625 66 
Q 48.5 61.09375 49.796875 52.40625 
L 41 52.40625 
Q 39.90625 57.5 36.796875 60.296875 
Q 33.703125 63.09375 29.09375 63.09375 
Q 21.5 63.09375 17.453125 56.140625 
Q 13.40625 49.203125 13.296875 36.203125 
Q 19.09375 44.09375 29.59375 44.09375 
Q 39.09375 44.09375 45.1875 37.796875 
Q 51.296875 31.5 51.296875 21.59375 
Q 51.296875 11.203125 44.75 4.453125 
Q 38.203125 -2.296875 28.09375 -2.296875 
Q 4.296875 -2.296875 4.296875 32.296875 
z
M 28.5 36.296875 
Q 22 36.296875 17.890625 32.140625 
Q 13.796875 28 13.796875 21.40625 
Q 13.796875 14.59375 17.890625 10.046875 
Q 22 5.5 28.203125 5.5 
Q 34.296875 5.5 38.296875 9.84375 
Q 42.296875 14.203125 42.296875 20.90625 
Q 42.296875 28 38.59375 32.140625 
Q 34.90625 36.296875 28.5 36.296875 
z
" id="FreeSans-54"/>
       </defs>
       <use xlink:href="#FreeSans-54"/>
      </g>
     </g>
    </g>
    <g id="text_13">
     <!-- log2 TPM -->
     <g transform="translate(36.246875 165.482407)rotate(-90)scale(0.2 -0.2)">
      <defs>
       <path d="M 14.40625 72.90625 
L 14.40625 0 
L 6 0 
L 6 72.90625 
z
" id="FreeSans-108"/>
       <path d="M 26.59375 53.90625 
Q 37.90625 53.90625 44.15625 46.453125 
Q 50.40625 39 50.40625 25.40625 
Q 50.40625 12.5 44.046875 5.09375 
Q 37.703125 -2.296875 26.703125 -2.296875 
Q 15.5 -2.296875 9.25 5.140625 
Q 3 12.59375 3 25.796875 
Q 3 39 9.296875 46.453125 
Q 15.59375 53.90625 26.59375 53.90625 
z
M 26.703125 46.203125 
Q 19.703125 46.203125 15.703125 40.75 
Q 11.703125 35.296875 11.703125 25.796875 
Q 11.703125 16.296875 15.703125 10.84375 
Q 19.703125 5.40625 26.703125 5.40625 
Q 33.59375 5.40625 37.640625 10.84375 
Q 41.703125 16.296875 41.703125 25.5 
Q 41.703125 35.203125 37.75 40.703125 
Q 33.796875 46.203125 26.703125 46.203125 
z
" id="FreeSans-111"/>
       <path d="M 24.59375 -2.296875 
Q 15.40625 -2.296875 9.203125 5.25 
Q 3 12.796875 3 25.296875 
Q 3 38.09375 9.140625 46 
Q 15.296875 53.90625 25.296875 53.90625 
Q 35.09375 53.90625 41.296875 44.796875 
L 40.296875 52.40625 
L 49 52.40625 
L 49 8.59375 
Q 49 1.09375 48.09375 -3.953125 
Q 47.203125 -9 44.796875 -13.296875 
Q 42.40625 -17.59375 37.65625 -19.6875 
Q 32.90625 -21.796875 25.59375 -21.796875 
Q 16.40625 -21.796875 10.90625 -17.59375 
Q 5.40625 -13.40625 4.703125 -6 
L 13.203125 -6 
Q 14.59375 -14.796875 25.90625 -14.796875 
Q 34.296875 -14.796875 37.390625 -10.046875 
Q 40.5 -5.296875 40.5 4.40625 
L 40.5 7.09375 
Q 37 2.09375 33.25 -0.09375 
Q 29.5 -2.296875 24.59375 -2.296875 
z
M 26.203125 46.203125 
Q 19.5 46.203125 15.59375 40.703125 
Q 11.703125 35.203125 11.703125 25.796875 
Q 11.703125 16.296875 15.59375 10.84375 
Q 19.5 5.40625 26.296875 5.40625 
Q 32.90625 5.40625 36.703125 10.75 
Q 40.5 16.09375 40.5 25.5 
Q 40.5 35.296875 36.75 40.75 
Q 33 46.203125 26.203125 46.203125 
z
" id="FreeSans-103"/>
       <path id="FreeSans-32"/>
       <path d="M 36.296875 64.703125 
L 36.296875 0 
L 27 0 
L 27 64.703125 
L 3 64.703125 
L 3 72.90625 
L 60.203125 72.90625 
L 60.203125 64.703125 
z
" id="FreeSans-84"/>
       <path d="M 60.59375 51.5 
Q 60.59375 42.203125 54.9375 36.546875 
Q 49.296875 30.90625 40.203125 30.90625 
L 17.296875 30.90625 
L 17.296875 0 
L 8 0 
L 8 72.90625 
L 38.09375 72.90625 
Q 48.90625 72.90625 54.75 67.34375 
Q 60.59375 61.796875 60.59375 51.5 
z
M 17.296875 39.09375 
L 36.703125 39.09375 
Q 43.40625 39.09375 47.15625 42.5 
Q 50.90625 45.90625 50.90625 51.90625 
Q 50.90625 57.90625 47.15625 61.296875 
Q 43.40625 64.703125 36.703125 64.703125 
L 17.296875 64.703125 
z
" id="FreeSans-80"/>
       <path d="M 47.296875 0 
L 37.5 0 
L 16.796875 61.09375 
L 16.796875 0 
L 8 0 
L 8 72.90625 
L 20.90625 72.90625 
L 42.5 9.40625 
L 63.703125 72.90625 
L 76.59375 72.90625 
L 76.59375 0 
L 67.796875 0 
L 67.796875 61.09375 
z
" id="FreeSans-77"/>
      </defs>
      <use xlink:href="#FreeSans-108"/>
      <use x="21.399994" xlink:href="#FreeSans-111"/>
      <use x="74.799988" xlink:href="#FreeSans-103"/>
      <use x="129.799973" xlink:href="#FreeSans-50"/>
      <use x="185.399963" xlink:href="#FreeSans-32"/>
      <use x="210.399948" xlink:href="#FreeSans-84"/>
      <use x="273.599945" xlink:href="#FreeSans-80"/>
      <use x="339.199936" xlink:href="#FreeSans-77"/>
     </g>
    </g>
   </g>
   <g id="line2d_23">
    <path clip-path="url(#p4fc1787e7d)" d="M 110.78 100.891417 
L 158.835 59.627346 
L 206.89 61.919073 
L 319.018333 74.441709 
L 511.238333 67.739813 
" style="fill:none;stroke:#1f77b4;stroke-dasharray:7.4,3.2;stroke-dashoffset:0;stroke-width:2;"/>
   </g>
   <g id="line2d_24">
    <defs>
     <path d="M 0 3 
C 0.795609 3 1.55874 2.683901 2.12132 2.12132 
C 2.683901 1.55874 3 0.795609 3 0 
C 3 -0.795609 2.683901 -1.55874 2.12132 -2.12132 
C 1.55874 -2.683901 0.795609 -3 0 -3 
C -0.795609 -3 -1.55874 -2.683901 -2.12132 -2.12132 
C -2.683901 -1.55874 -3 -0.795609 -3 0 
C -3 0.795609 -2.683901 1.55874 -2.12132 2.12132 
C -1.55874 2.683901 -0.795609 3 0 3 
z
" id="m8d61a73b47"/>
    </defs>
    <g clip-path="url(#p4fc1787e7d)">
     <use style="fill:#1f77b4;fill-opacity:0.5;" x="110.78" xlink:href="#m8d61a73b47" y="87.613964"/>
     <use style="fill:#1f77b4;fill-opacity:0.5;" x="110.78" xlink:href="#m8d61a73b47" y="97.716579"/>
     <use style="fill:#1f77b4;fill-opacity:0.5;" x="110.78" xlink:href="#m8d61a73b47" y="117.343709"/>
     <use style="fill:#1f77b4;fill-opacity:0.5;" x="158.835" xlink:href="#m8d61a73b47" y="81.876772"/>
     <use style="fill:#1f77b4;fill-opacity:0.5;" x="158.835" xlink:href="#m8d61a73b47" y="37.37792"/>
     <use style="fill:#1f77b4;fill-opacity:0.5;" x="206.89" xlink:href="#m8d61a73b47" y="84.672165"/>
     <use style="fill:#1f77b4;fill-opacity:0.5;" x="206.89" xlink:href="#m8d61a73b47" y="38.43076"/>
     <use style="fill:#1f77b4;fill-opacity:0.5;" x="206.89" xlink:href="#m8d61a73b47" y="62.654294"/>
     <use style="fill:#1f77b4;fill-opacity:0.5;" x="319.018333" xlink:href="#m8d61a73b47" y="100.323862"/>
     <use style="fill:#1f77b4;fill-opacity:0.5;" x="319.018333" xlink:href="#m8d61a73b47" y="48.559556"/>
     <use style="fill:#1f77b4;fill-opacity:0.5;" x="511.238333" xlink:href="#m8d61a73b47" y="49.84065"/>
     <use style="fill:#1f77b4;fill-opacity:0.5;" x="511.238333" xlink:href="#m8d61a73b47" y="85.638975"/>
    </g>
   </g>
   <g id="line2d_25">
    <path clip-path="url(#p4fc1787e7d)" d="M 110.78 170.240043 
L 158.835 128.842886 
L 206.89 100.472796 
L 319.018333 118.980629 
L 511.238333 87.342281 
" style="fill:none;stroke:#ff7f0e;stroke-dasharray:7.4,3.2;stroke-dashoffset:0;stroke-width:2;"/>
   </g>
   <g id="line2d_26">
    <defs>
     <path d="M 0 3 
C 0.795609 3 1.55874 2.683901 2.12132 2.12132 
C 2.683901 1.55874 3 0.795609 3 0 
C 3 -0.795609 2.683901 -1.55874 2.12132 -2.12132 
C 1.55874 -2.683901 0.795609 -3 0 -3 
C -0.795609 -3 -1.55874 -2.683901 -2.12132 -2.12132 
C -2.683901 -1.55874 -3 -0.795609 -3 0 
C -3 0.795609 -2.683901 1.55874 -2.12132 2.12132 
C -1.55874 2.683901 -0.795609 3 0 3 
z
" id="mb30b268c80"/>
    </defs>
    <g clip-path="url(#p4fc1787e7d)">
     <use style="fill:#ff7f0e;fill-opacity:0.5;" x="110.78" xlink:href="#mb30b268c80" y="153.824318"/>
     <use style="fill:#ff7f0e;fill-opacity:0.5;" x="110.78" xlink:href="#mb30b268c80" y="208.82752"/>
     <use style="fill:#ff7f0e;fill-opacity:0.5;" x="110.78" xlink:href="#mb30b268c80" y="148.068292"/>
     <use style="fill:#ff7f0e;fill-opacity:0.5;" x="158.835" xlink:href="#mb30b268c80" y="123.461219"/>
     <use style="fill:#ff7f0e;fill-opacity:0.5;" x="158.835" xlink:href="#mb30b268c80" y="134.224554"/>
     <use style="fill:#ff7f0e;fill-opacity:0.5;" x="206.89" xlink:href="#mb30b268c80" y="72.699564"/>
     <use style="fill:#ff7f0e;fill-opacity:0.5;" x="206.89" xlink:href="#mb30b268c80" y="130.37446"/>
     <use style="fill:#ff7f0e;fill-opacity:0.5;" x="206.89" xlink:href="#mb30b268c80" y="98.344363"/>
     <use style="fill:#ff7f0e;fill-opacity:0.5;" x="319.018333" xlink:href="#mb30b268c80" y="123.537817"/>
     <use style="fill:#ff7f0e;fill-opacity:0.5;" x="319.018333" xlink:href="#mb30b268c80" y="114.423442"/>
     <use style="fill:#ff7f0e;fill-opacity:0.5;" x="511.238333" xlink:href="#mb30b268c80" y="92.141964"/>
     <use style="fill:#ff7f0e;fill-opacity:0.5;" x="511.238333" xlink:href="#mb30b268c80" y="82.542598"/>
    </g>
   </g>
   <g id="patch_3">
    <path d="M 62.725 217.4 
L 62.725 28.80544 
" style="fill:none;stroke:#000000;stroke-linecap:square;stroke-linejoin:miter;stroke-width:0.8;"/>
   </g>
   <g id="patch_4">
    <path d="M 543.275 217.4 
L 543.275 28.80544 
" style="fill:none;stroke:#000000;stroke-linecap:square;stroke-linejoin:miter;stroke-width:0.8;"/>
   </g>
   <g id="patch_5">
    <path d="M 62.725 217.4 
L 543.275 217.4 
" style="fill:none;stroke:#000000;stroke-linecap:square;stroke-linejoin:miter;stroke-width:0.8;"/>
   </g>
   <g id="patch_6">
    <path d="M 62.725 28.80544 
L 543.275 28.80544 
" style="fill:none;stroke:#000000;stroke-linecap:square;stroke-linejoin:miter;stroke-width:0.8;"/>
   </g>
   <g id="legend_1">
    <g id="patch_7">
     <path d="M 287.06875 207.4 
L 529.275 207.4 
Q 533.275 207.4 533.275 203.4 
L 533.275 147.51875 
Q 533.275 143.51875 529.275 143.51875 
L 287.06875 143.51875 
Q 283.06875 143.51875 283.06875 147.51875 
L 283.06875 203.4 
Q 283.06875 207.4 287.06875 207.4 
z
" style="fill:#ffffff;opacity:0.8;stroke:#cccccc;stroke-linejoin:miter;"/>
    </g>
    <g id="line2d_27">
     <path d="M 291.06875 159.1 
L 331.06875 159.1 
" style="fill:none;stroke:#1f77b4;stroke-dasharray:7.4,3.2;stroke-dashoffset:0;stroke-width:2;"/>
    </g>
    <g id="line2d_28"/>
    <g id="text_14">
     <!-- ENSG00000124813 -->
     <g transform="translate(347.06875 166.1)scale(0.2 -0.2)">
      <defs>
       <path d="M 17.296875 33.203125 
L 17.296875 8.203125 
L 60.296875 8.203125 
L 60.296875 0 
L 8 0 
L 8 72.90625 
L 58.5 72.90625 
L 58.5 64.703125 
L 17.296875 64.703125 
L 17.296875 41.40625 
L 57 41.40625 
L 57 33.203125 
z
" id="FreeSans-69"/>
       <path d="M 65 72.90625 
L 65 0 
L 54.5 0 
L 16.796875 59.09375 
L 16.796875 0 
L 8 0 
L 8 72.90625 
L 18.09375 72.90625 
L 56.203125 13.296875 
L 56.203125 72.90625 
z
" id="FreeSans-78"/>
       <path d="M 34.203125 5.90625 
Q 39.796875 5.90625 43.6875 7.203125 
Q 47.59375 8.5 49.4375 10.59375 
Q 51.296875 12.703125 52.046875 14.75 
Q 52.796875 16.796875 52.796875 19.09375 
Q 52.796875 27.40625 39.40625 30.90625 
L 21.296875 35.703125 
Q 7 39.40625 7 52.703125 
Q 7 62.59375 13.953125 68.34375 
Q 20.90625 74.09375 32.90625 74.09375 
Q 45.5 74.09375 52.5 68.140625 
Q 59.5 62.203125 59.59375 51.5 
L 50.796875 51.5 
Q 50.703125 58.59375 46 62.4375 
Q 41.296875 66.296875 32.59375 66.296875 
Q 25.203125 66.296875 20.75 62.890625 
Q 16.296875 59.5 16.296875 54 
Q 16.296875 49.796875 19 47.390625 
Q 21.703125 45 28.296875 43.203125 
L 46.59375 38.296875 
Q 54 36.296875 58.046875 31.5 
Q 62.09375 26.703125 62.09375 20 
Q 62.09375 17.09375 61.34375 14.25 
Q 60.59375 11.40625 58.59375 8.34375 
Q 56.59375 5.296875 53.5 3 
Q 50.40625 0.703125 45.25 -0.796875 
Q 40.09375 -2.296875 33.59375 -2.296875 
Q 29.5 -2.296875 25.75 -1.640625 
Q 22 -1 18.09375 0.75 
Q 14.203125 2.5 11.390625 5.25 
Q 8.59375 8 6.75 12.59375 
Q 4.90625 17.203125 4.796875 23.203125 
L 13.59375 23.203125 
L 13.59375 22.703125 
Q 13.59375 19.59375 14.546875 16.890625 
Q 15.5 14.203125 17.640625 11.59375 
Q 19.796875 9 24.046875 7.453125 
Q 28.296875 5.90625 34.203125 5.90625 
z
" id="FreeSans-83"/>
       <path d="M 13.296875 36.203125 
Q 13.296875 32.40625 14 28.546875 
Q 14.703125 24.703125 16.5 20.5 
Q 18.296875 16.296875 21.140625 13.140625 
Q 24 10 28.703125 7.953125 
Q 33.40625 5.90625 39.40625 5.90625 
Q 49.40625 5.90625 55.84375 12.203125 
Q 62.296875 18.5 62.296875 28.296875 
L 62.296875 30.296875 
L 40.09375 30.296875 
L 40.09375 38.5 
L 70.5 38.5 
L 70.5 -0.40625 
L 64.59375 -0.40625 
L 62.296875 9.296875 
Q 51.90625 -2.296875 37.40625 -2.296875 
Q 22.59375 -2.296875 13.296875 8.296875 
Q 4 18.90625 4 35.703125 
Q 4 40.5 4.890625 45.34375 
Q 5.796875 50.203125 8.296875 55.5 
Q 10.796875 60.796875 14.546875 64.796875 
Q 18.296875 68.796875 24.640625 71.4375 
Q 31 74.09375 39 74.09375 
Q 51.5 74.09375 59.546875 68 
Q 67.59375 61.90625 69.5 50.796875 
L 60 50.796875 
Q 58.5 57.796875 52.84375 61.84375 
Q 47.203125 65.90625 38.90625 65.90625 
Q 27.296875 65.90625 20.296875 57.75 
Q 13.296875 49.59375 13.296875 36.203125 
z
" id="FreeSans-71"/>
       <path d="M 39.09375 37.296875 
Q 51.296875 31.5 51.296875 19.59375 
Q 51.296875 9.90625 44.640625 3.796875 
Q 38 -2.296875 27.5 -2.296875 
Q 17 -2.296875 10.34375 3.84375 
Q 3.703125 10 3.703125 19.703125 
Q 3.703125 31.5 15.796875 37.296875 
Q 10.40625 40.703125 8.296875 43.890625 
Q 6.203125 47.09375 6.203125 52 
Q 6.203125 60.296875 12.140625 65.59375 
Q 18.09375 70.90625 27.5 70.90625 
Q 36.90625 70.90625 42.84375 65.59375 
Q 48.796875 60.296875 48.796875 52 
Q 48.796875 47 46.6875 43.796875 
Q 44.59375 40.59375 39.09375 37.296875 
z
M 39.796875 57 
Q 33.09375 63.09375 27.5 63.09375 
Q 21.90625 63.09375 18.546875 60.046875 
Q 15.203125 57 15.203125 51.90625 
Q 15.203125 46.90625 18.546875 43.84375 
Q 21.90625 40.796875 27.5 40.796875 
Q 33 40.796875 36.390625 43.796875 
Q 39.796875 46.796875 39.796875 51.796875 
Q 39.796875 57 33.09375 63.09375 
z
M 42.296875 25.703125 
Q 34.09375 33.40625 27.5 33.40625 
Q 20.90625 33.40625 16.796875 29.546875 
Q 12.703125 25.703125 12.703125 19.5 
Q 12.703125 13.296875 16.75 9.390625 
Q 20.796875 5.5 27.296875 5.5 
Q 34 5.5 38.140625 9.34375 
Q 42.296875 13.203125 42.296875 19.5 
Q 42.296875 25.703125 34.09375 33.40625 
z
" id="FreeSans-56"/>
      </defs>
      <use xlink:href="#FreeSans-69"/>
      <use x="63.299988" xlink:href="#FreeSans-78"/>
      <use x="136.299973" xlink:href="#FreeSans-83"/>
      <use x="202.999969" xlink:href="#FreeSans-71"/>
      <use x="279.499954" xlink:href="#FreeSans-48"/>
      <use x="335.099945" xlink:href="#FreeSans-48"/>
      <use x="390.699936" xlink:href="#FreeSans-48"/>
      <use x="446.299927" xlink:href="#FreeSans-48"/>
      <use x="501.899918" xlink:href="#FreeSans-48"/>
      <use x="557.499908" xlink:href="#FreeSans-49"/>
      <use x="613.099899" xlink:href="#FreeSans-50"/>
      <use x="668.69989" xlink:href="#FreeSans-52"/>
      <use x="724.299881" xlink:href="#FreeSans-56"/>
      <use x="779.899872" xlink:href="#FreeSans-49"/>
      <use x="835.499863" xlink:href="#FreeSans-51"/>
     </g>
    </g>
    <g id="line2d_29">
     <path d="M 291.06875 188.040625 
L 331.06875 188.040625 
" style="fill:none;stroke:#ff7f0e;stroke-dasharray:7.4,3.2;stroke-dashoffset:0;stroke-width:2;"/>
    </g>
    <g id="line2d_30"/>
    <g id="text_15">
     <!-- ENSG00000132170 -->
     <g transform="translate(347.06875 195.040625)scale(0.2 -0.2)">
      <defs>
       <path d="M 52 70.90625 
L 52 63.5 
Q 40 47.5 33.046875 32.25 
Q 26.09375 17 23.203125 0 
L 13.796875 0 
Q 17.796875 17.5 24 30.796875 
Q 30.203125 44.09375 42.90625 62.203125 
L 4.59375 62.203125 
L 4.59375 70.90625 
z
" id="FreeSans-55"/>
      </defs>
      <use xlink:href="#FreeSans-69"/>
      <use x="63.299988" xlink:href="#FreeSans-78"/>
      <use x="136.299973" xlink:href="#FreeSans-83"/>
      <use x="202.999969" xlink:href="#FreeSans-71"/>
      <use x="279.499954" xlink:href="#FreeSans-48"/>
      <use x="335.099945" xlink:href="#FreeSans-48"/>
      <use x="390.699936" xlink:href="#FreeSans-48"/>
      <use x="446.299927" xlink:href="#FreeSans-48"/>
      <use x="501.899918" xlink:href="#FreeSans-48"/>
      <use x="557.499908" xlink:href="#FreeSans-49"/>
      <use x="613.099899" xlink:href="#FreeSans-51"/>
      <use x="668.69989" xlink:href="#FreeSans-50"/>
      <use x="724.299881" xlink:href="#FreeSans-49"/>
      <use x="779.899872" xlink:href="#FreeSans-55"/>
      <use x="835.499863" xlink:href="#FreeSans-48"/>
     </g>
    </g>
   </g>
  </g>
 </g>
 <defs>
  <clipPath id="p4fc1787e7d">
   <rect height="188.59456" width="480.55" x="62.725" y="28.80544"/>
  </clipPath>
 </defs>
</svg>
